<svg width="200" height="200" viewBox="0 0 200 200" fill="none" xmlns="http://www.w3.org/2000/svg">
<path d="M119.167 84.4083C121.5 93.575 117.417 102.075 110.417 106.408V122.908C110.417 125.671 109.319 128.321 107.366 130.274C105.412 132.228 102.763 133.325 100 133.325C97.2373 133.325 94.5878 132.228 92.6343 130.274C90.6808 128.321 89.5833 125.671 89.5833 122.908V106.408C86.7072 104.64 84.3318 102.164 82.6835 99.2176C81.0351 96.271 80.1687 92.9514 80.1667 89.575C80.1667 76.9083 92.1667 67.075 105.333 70.575C112 72.325 117.417 77.7417 119.167 84.4083Z" fill="#0D7A5C"/>
<path opacity="0.4" d="M100 189.583C50.5833 189.583 10.4167 149.417 10.4167 100C10.4167 50.5833 50.5833 10.4167 100 10.4167C139.5 10.4167 173.833 35.75 185.583 73.3333C186.583 76.6667 184.75 80.1667 181.5 81.1667C178.167 82.1667 174.667 80.3333 173.667 77.0833C168.832 61.3573 159.069 47.6024 145.82 37.849C132.57 28.0956 116.536 22.8605 100.083 22.9167C57.5833 22.9167 23 57.5 23 100C23 142.5 57.5833 177.083 100.083 177.083C116.491 177.145 132.486 171.94 145.717 162.235C158.947 152.53 168.714 138.836 173.583 123.167C174.583 119.833 178.083 118.083 181.417 119.083C184.75 120.083 186.5 123.667 185.5 126.917C173.667 164.417 139.333 189.583 100 189.583Z" fill="#0D7A5C"/>
</svg>
