<svg width="200" height="200" viewBox="0 0 200 200" fill="none" xmlns="http://www.w3.org/2000/svg">
<path d="M100.017 100C105.166 100 110.105 97.9543 113.746 94.313C117.388 90.6717 119.433 85.733 119.433 80.5834C119.433 75.4337 117.388 70.495 113.746 66.8537C110.105 63.2124 105.166 61.1667 100.017 61.1667C94.8671 61.1667 89.9284 63.2124 86.287 66.8537C82.6457 70.495 80.6 75.4337 80.6 80.5834C80.6 85.733 82.6457 90.6717 86.287 94.313C89.9284 97.9543 94.8671 100 100.017 100ZM122.342 138.817C129.092 138.817 133.008 131.317 129.258 125.733C123.592 117.317 112.592 111.65 100.008 111.65C87.425 111.65 76.425 117.317 70.7583 125.733C67.0083 131.317 70.925 138.817 77.675 138.817H122.342Z" fill="#0D7A5C"/>
<path opacity="0.4" d="M100 189.583C50.5833 189.583 10.4166 149.417 10.4166 99.9999C10.4166 50.5833 50.5833 10.4166 100 10.4166C139.5 10.4166 173.833 35.7499 185.583 73.3333C186.583 76.6666 184.75 80.1666 181.5 81.1666C178.167 82.1666 174.667 80.3333 173.667 77.0833C168.832 61.3572 159.069 47.6023 145.82 37.8489C132.57 28.0955 116.536 22.8605 100.083 22.9166C57.5833 22.9166 23 57.4999 23 99.9999C23 142.5 57.5833 177.083 100.083 177.083C116.491 177.145 132.486 171.94 145.717 162.235C158.947 152.53 168.714 138.836 173.583 123.167C174.583 119.833 178.083 118.083 181.417 119.083C184.75 120.083 186.5 123.667 185.5 126.917C173.667 164.417 139.333 189.583 100 189.583Z" fill="#0D7A5C"/>
</svg>
