<svg width="40" height="40" viewBox="0 0 40 40" fill="none" xmlns="http://www.w3.org/2000/svg">
<path opacity="0.4" d="M13.0167 3.33334H26.9667C33.05 3.33334 36.6667 6.95001 36.6667 13.0167V26.9667C36.6667 33.0333 33.05 36.65 26.9834 36.65H13.0167C6.95004 36.6667 3.33337 33.05 3.33337 26.9833V13.0167C3.33337 6.95001 6.95004 3.33334 13.0167 3.33334Z" fill="#3CB189"/>
<path d="M9.11667 19.1167L16.2667 11.9667C16.75 11.4833 17.55 11.4833 18.0333 11.9667C18.5167 12.45 18.5167 13.25 18.0333 13.7333L13.0167 18.75H30C30.6833 18.75 31.25 19.3167 31.25 20C31.25 20.6833 30.6833 21.25 30 21.25H13.0167L18.0333 26.2667C18.5167 26.75 18.5167 27.55 18.0333 28.0333C17.7833 28.2833 17.4667 28.4 17.15 28.4C16.8333 28.4 16.5167 28.2833 16.2667 28.0333L9.11667 20.8833C8.88258 20.6489 8.7511 20.3312 8.7511 20C8.7511 19.6687 8.88258 19.351 9.11667 19.1167Z" fill="#3CB189"/>
</svg>
