<svg width="28" height="24" viewBox="0 0 28 24" fill="none" xmlns="http://www.w3.org/2000/svg">
<path d="M22.5575 22L20.5575 20M12.0575 21C13.3051 21 14.5404 20.7543 15.693 20.2769C16.8456 19.7994 17.8929 19.0997 18.775 18.2175C19.6572 17.3354 20.3569 16.2881 20.8344 15.1355C21.3118 13.9829 21.5575 12.7476 21.5575 11.5C21.5575 10.2524 21.3118 9.0171 20.8344 7.86451C20.3569 6.71191 19.6572 5.66464 18.775 4.78249C17.8929 3.90033 16.8456 3.20056 15.693 2.72314C14.5404 2.24572 13.3051 2 12.0575 2C9.53794 2 7.12158 3.00089 5.33998 4.78249C3.55838 6.56408 2.5575 8.98044 2.5575 11.5C2.5575 14.0196 3.55838 16.4359 5.33998 18.2175C7.12158 19.9991 9.53794 21 12.0575 21Z" stroke="#AEAEB2" stroke-width="1.5" stroke-linecap="round" stroke-linejoin="round"/>
</svg>
